<svg width="60" height="60" viewBox="0 0 60 60" fill="none" xmlns="http://www.w3.org/2000/svg">
<path d="M12.5 46.925V44.425H16.54V24.6125C16.54 21.3458 17.5733 18.4733 19.64 15.995C21.7067 13.5167 24.3267 11.9733 27.5 11.365V10C27.5 9.305 27.7425 8.715 28.2275 8.23C28.7125 7.74333 29.3017 7.5 29.995 7.5C30.6883 7.5 31.2792 7.74333 31.7675 8.23C32.2558 8.71667 32.5 9.30667 32.5 10V11.365C35.6733 11.9733 38.2933 13.5175 40.36 15.9975C42.4267 18.4775 43.46 21.35 43.46 24.615V44.4225H47.5V46.9225L12.5 46.925ZM29.9925 53.4625C28.8792 53.4625 27.9292 53.0667 27.1425 52.275C26.3558 51.4833 25.9625 50.5333 25.9625 49.425H34.0375C34.0375 50.5417 33.6417 51.4933 32.85 52.28C32.0567 53.0667 31.1042 53.4625 29.9925 53.4625ZM19.04 44.425H40.9625V24.615C40.9625 21.5767 39.895 18.99 37.76 16.855C35.625 14.72 33.0383 13.6533 30 13.655C26.9617 13.6567 24.375 14.7233 22.24 16.855C20.105 18.9867 19.0383 21.5733 19.04 24.615V44.425Z" fill="white"/>
</svg>
