<svg width="50" height="50" viewBox="0 0 50 50" fill="none" xmlns="http://www.w3.org/2000/svg">
<path d="M25 26.475L14.0708 37.4041C13.8763 37.5986 13.6375 37.7027 13.3541 37.7166C13.0708 37.7305 12.818 37.6263 12.5958 37.4041C12.3736 37.1819 12.2625 36.9361 12.2625 36.6666C12.2625 36.3972 12.3736 36.1513 12.5958 35.9291L23.525 25L12.5958 14.0708C12.4013 13.8763 12.2972 13.6375 12.2833 13.3541C12.2694 13.0708 12.3736 12.818 12.5958 12.5958C12.818 12.3736 13.0638 12.2625 13.3333 12.2625C13.6027 12.2625 13.8486 12.3736 14.0708 12.5958L25 23.525L35.9291 12.5958C36.1236 12.4013 36.3631 12.2972 36.6479 12.2833C36.9298 12.2694 37.1819 12.3736 37.4041 12.5958C37.6263 12.818 37.7375 13.0638 37.7375 13.3333C37.7375 13.6027 37.6263 13.8486 37.4041 14.0708L26.475 25L37.4041 35.9291C37.5986 36.1236 37.7027 36.3631 37.7166 36.6479C37.7305 36.9298 37.6263 37.1819 37.4041 37.4041C37.1819 37.6263 36.9361 37.7375 36.6666 37.7375C36.3972 37.7375 36.1513 37.6263 35.9291 37.4041L25 26.475Z" fill="#9C231D"/>
</svg>
