<svg width="426" height="343" viewBox="0 0 426 343" fill="none" xmlns="http://www.w3.org/2000/svg">
<path d="M7.38711 129.154C11.3871 138.154 20.3871 135.654 20.3871 135.654C20.3871 135.654 19.8871 144.964 27.8871 149.154C27.8871 149.154 13.2189 161.669 12.8871 172.501C12.6373 180.656 20.3871 192.001 20.3871 192.001C20.3871 192.001 13.3124 199.813 12.8871 206.001C12.4582 212.241 18.5058 221.001 18.5058 221.001C18.5058 221.001 3.66383 226.001 4.00583 245.001C4.34782 264.001 25.5058 268.501 25.5058 268.501C25.5058 268.501 30.0058 279.001 38.0058 281.001C46.0058 283.001 55.5058 277.501 55.5058 277.501C55.5058 277.501 66.1657 283.69 73.0058 281.001C74.8817 280.263 76.4828 279.038 77.7562 277.501C77.7562 277.501 82.9506 280.355 87.0058 281.001C90.7652 281.599 96.6374 281.001 96.6374 281.001C98.0012 283.349 100.148 285.3 103.006 286.501C109.905 289.4 121.506 281.001 121.506 281.001C121.506 281.001 136.506 284.011 148.506 277.501C151.293 275.988 153.784 274.261 155.966 272.501C155.966 272.501 169.006 277.501 185.506 271.501L193.506 275.501C185.006 289.501 197.006 307.001 197.006 307.001C197.006 307.001 184.506 324.613 197.006 334.501C209.506 344.388 225.006 331.001 225.006 331.001C225.006 331.001 240.006 332.501 244.006 322.501C248.006 312.501 241.506 300.501 241.506 300.501C241.506 300.501 256.528 301.813 264.006 297.001C269.725 293.32 275.006 283.501 275.006 283.501C275.006 283.501 286.006 289.608 296.006 285.001C306.006 280.393 308.006 271.001 308.006 271.001C308.006 271.001 326.345 275.544 336.506 271.001C345.708 266.886 354.506 252.501 354.506 252.501C354.506 252.501 371.006 266.001 389.506 258.001C408.006 250.001 407.506 234.501 407.506 234.501C407.506 234.501 421.506 229.001 421.506 204.501C421.506 180.001 402.506 170.501 402.506 170.501C402.506 170.501 412.506 152.001 402.506 132.001C392.506 112.001 371.506 114.001 371.506 114.001C371.506 114.001 368.506 90.0007 344.006 79.0007C319.506 68.0007 296.506 81.0007 296.506 81.0007C296.506 81.0007 278.506 64.0007 254.506 68.0007C230.506 72.0007 218.506 89.5007 218.506 89.5007C218.506 89.5007 205.006 83.4192 192.006 87.5007C179.006 91.5821 172.468 102.501 172.468 102.501C171.667 100.429 170.902 98.208 170.387 95.6542C166.768 77.6875 167.83 67.4518 158.887 50.1542C148.587 30.2304 127.387 1.65417 118.887 4.1542C110.387 6.65422 112.887 35.1542 112.887 35.1542C90.3871 28.6542 77.387 30.6542 60.387 35.1542C60.387 35.1542 35.8871 7.15415 28.3871 9.15415C20.8871 11.1542 27.666 30.5669 25.8871 44.1541C22.6531 68.8544 9.64428 78.8743 12.8871 102.654C14.3871 113.654 3.38712 120.154 7.38711 129.154Z" fill="url(#paint0_radial_28_41)"/>
<path d="M135.387 147.154C135.387 147.154 145.387 153.654 154.387 147.154C163.387 140.654 157.387 129.154 157.387 129.154C157.387 129.154 171.387 132.654 174.887 121.654C177.502 113.435 174.833 108.623 172.468 102.501M27.8871 149.154C19.8871 144.964 20.3871 135.654 20.3871 135.654C20.3871 135.654 11.3871 138.154 7.38711 129.154C3.38712 120.154 14.3871 113.654 12.8871 102.654C9.64428 78.8743 22.6531 68.8544 25.8871 44.1541C27.666 30.5669 20.8871 11.1542 28.3871 9.15415C35.8871 7.15415 60.387 35.1542 60.387 35.1542C77.387 30.6542 90.3871 28.6542 112.887 35.1542C112.887 35.1542 110.387 6.65422 118.887 4.1542C127.387 1.65417 148.587 30.2304 158.887 50.1542C167.83 67.4518 166.768 77.6875 170.387 95.6542C170.902 98.208 171.667 100.429 172.468 102.501M27.8871 149.154C35.8872 153.345 44.3871 147.154 44.3871 147.154M27.8871 149.154C27.8871 149.154 13.2189 161.669 12.8871 172.501C12.6373 180.656 20.3871 192.001 20.3871 192.001C20.3871 192.001 13.3124 199.813 12.8871 206.001C12.4582 212.241 18.5058 221.001 18.5058 221.001C18.5058 221.001 3.66383 226.001 4.00583 245.001C4.34782 264.001 25.5058 268.501 25.5058 268.501C25.5058 268.501 30.0058 279.001 38.0058 281.001C46.0058 283.001 55.5058 277.501 55.5058 277.501C55.5058 277.501 66.1657 283.69 73.0058 281.001C74.8817 280.263 76.4828 279.038 77.7562 277.501M41.0058 236.501C41.0058 236.501 51.0589 236.663 55.5058 240.501C60.2821 244.623 61.5058 255.501 61.5058 255.501C61.5058 255.501 76.9803 254.863 80.0058 262.001C82.2016 267.181 81.126 273.433 77.7562 277.501M144.006 238.501C144.006 238.501 131.006 237.001 123.006 243.501C115.006 250.001 111.506 260.501 111.506 260.501C111.506 260.501 100.559 260.995 97.0058 267.001C94.2627 271.637 94.2672 276.919 96.6374 281.001M185.506 234.501C185.506 234.501 188.006 244.501 181.506 252.501C175.006 260.501 167.006 260.501 167.006 260.501C167.006 260.501 163.175 266.683 155.966 272.501M77.7562 277.501C77.7562 277.501 82.9506 280.355 87.0058 281.001C90.7652 281.599 96.6374 281.001 96.6374 281.001M96.6374 281.001C98.0012 283.349 100.148 285.3 103.006 286.501C109.905 289.4 121.506 281.001 121.506 281.001C121.506 281.001 136.506 284.011 148.506 277.501C151.293 275.988 153.784 274.261 155.966 272.501M354.506 180.001C350.593 197.212 338.073 192.363 329.506 202.001C320.939 211.638 326.506 224.001 326.506 224.001C326.506 224.001 309.006 215.001 294.006 219.001C279.006 223.001 271.006 240.501 271.006 240.501C271.006 240.501 252.571 232.933 241.506 236.501C230.98 239.895 224.933 245.366 220.506 255.501C220.506 255.501 202.006 261.501 193.506 275.501M193.506 275.501C185.006 289.501 197.006 307.001 197.006 307.001C197.006 307.001 184.506 324.613 197.006 334.501C209.506 344.388 225.006 331.001 225.006 331.001C225.006 331.001 240.006 332.501 244.006 322.501C248.006 312.501 241.506 300.501 241.506 300.501C241.506 300.501 256.528 301.813 264.006 297.001C269.725 293.32 275.006 283.501 275.006 283.501C275.006 283.501 286.006 289.608 296.006 285.001C306.006 280.393 308.006 271.001 308.006 271.001C308.006 271.001 326.345 275.544 336.506 271.001C345.708 266.886 354.506 252.501 354.506 252.501C354.506 252.501 371.006 266.001 389.506 258.001C408.006 250.001 407.506 234.501 407.506 234.501C407.506 234.501 421.506 229.001 421.506 204.501C421.506 180.001 402.506 170.501 402.506 170.501C402.506 170.501 412.506 152.001 402.506 132.001C392.506 112.001 371.506 114.001 371.506 114.001C371.506 114.001 368.506 90.0007 344.006 79.0007C319.506 68.0007 296.506 81.0007 296.506 81.0007C296.506 81.0007 278.506 64.0007 254.506 68.0007C230.506 72.0007 218.506 89.5007 218.506 89.5007C218.506 89.5007 205.006 83.4192 192.006 87.5007C179.006 91.5821 172.468 102.501 172.468 102.501M193.506 275.501L185.506 271.501C169.006 277.501 155.966 272.501 155.966 272.501" stroke="url(#paint1_linear_28_41)" stroke-width="8" stroke-linecap="round" stroke-linejoin="round"/>
<path d="M86 104.001H79L82.5 106.001L86 104.001Z" fill="url(#paint2_radial_28_41)" stroke="#81ADD4" stroke-width="8" stroke-linecap="round" stroke-linejoin="round"/>
<circle cx="53" cy="92.5007" r="11.5" stroke="#81ADD4" stroke-width="8"/>
<circle cx="116" cy="92.5007" r="11.5" stroke="#81ADD4" stroke-width="8"/>
<defs>
<radialGradient id="paint0_radial_28_41" cx="0" cy="0" r="1" gradientUnits="userSpaceOnUse" gradientTransform="translate(82.0058 15.0006) rotate(46.4466) scale(420.155 420.155)">
<stop offset="0.1" stop-color="#DAF0FF"/>
<stop offset="1" stop-color="#DBD8EE"/>
</radialGradient>
<linearGradient id="paint1_linear_28_41" x1="73.5058" y1="20.0007" x2="326.006" y2="333.001" gradientUnits="userSpaceOnUse">
<stop stop-color="#81ADD4"/>
<stop offset="1" stop-color="#8677C3"/>
</linearGradient>
<radialGradient id="paint2_radial_28_41" cx="0" cy="0" r="1" gradientTransform="matrix(4.85382 1.82259 -5.10532 1.73281 80.3079 104.067)" gradientUnits="userSpaceOnUse">
<stop offset="0.1" stop-color="#DAF0FF"/>
<stop offset="1" stop-color="#DBD8EE"/>
</radialGradient>
</defs>
</svg>
